<?xml version="1.0" encoding="utf-8"?>
<!-- Generator: Adobe Illustrator 16.0.0, SVG Export Plug-In . SVG Version: 6.00 Build 0)  -->
<!DOCTYPE svg PUBLIC "-//W3C//DTD SVG 1.1//EN" "http://www.w3.org/Graphics/SVG/1.1/DTD/svg11.dtd">
<svg version="1.1" id="图层_1" xmlns="http://www.w3.org/2000/svg" xmlns:xlink="http://www.w3.org/1999/xlink" x="0px" y="0px"
	 width="111px" height="38px" viewBox="0 0 111 38" enable-background="new 0 0 111 38" xml:space="preserve">
<g transform="translate(-1)">
	<path fill="#00A0FF" d="M30.8,4.1L30.8,4.1L30.8,4.1L30.8,4.1L30.8,4.1c-0.7-0.5-1.4-1-2.2-1.4C28.1,2.4,27.4,2.5,27,3l-4.7,6.2
		L22,9.6c-0.5,0.7-1.3,1-2.1,1H19c-2.3,0.1-4.6,1.3-6.1,3.3c-1.2,1.6-1.8,3.5-1.7,5.4c0,0.3,0.2,0.601,0.5,0.8
		C12.3,20.4,12.8,21,13,21.7c0.2,1.1-0.5,2.1-1.5,2.399C10.3,24.5,9,23.7,8.7,22.5c-0.2-0.7,0-1.3,0.4-1.8c0.2-0.3,0.3-0.601,0.3-1
		c-0.2-2.4,0.4-4.9,2-7c2-2.6,5-4,8.1-4c0.6,0,1.1-0.3,1.5-0.8l4.3-5.7c0.3-0.4,0.1-1.1-0.4-1.2C17.7-1,9.7,1.4,4.8,7.7
		c-6.2,8.1-4.7,19.8,3.4,26.1C9,34.4,9.7,34.9,10.6,35.4c0.5,0.3,1.2,0.199,1.6-0.301l4.7-6.199l0.3-0.4c0.5-0.7,1.3-1,2.1-1h0.9
		c2.3-0.1,4.6-1.3,6.1-3.3c1.2-1.601,1.8-3.5,1.7-5.4c0-0.3-0.2-0.6-0.5-0.8c-0.6-0.3-1.1-0.9-1.3-1.6c-0.2-1.1,0.5-2.1,1.5-2.4
		c1.2-0.4,2.5,0.4,2.8,1.6c0.2,0.7,0,1.3-0.4,1.8c-0.2,0.3-0.3,0.6-0.3,1c0.2,2.4-0.4,4.9-2,7c-2,2.6-5,4-8.1,4
		c-0.6,0-1.1,0.3-1.5,0.8L14,35.6c-0.3,0.4-0.1,1.101,0.4,1.2c7.2,2.101,15.3-0.3,20.1-6.7C40.7,22,39,10.3,30.8,4.1z"/>
	<g transform="translate(43 8)">
		<path fill="#00A0FF" d="M18.6,2V1.6C18.6,1.2,18.3,1,18,1H3.5C3.2,1,2.9,1.3,2.9,1.6v0.9c0,0.3,0.3,0.6,0.6,0.6h12.3
			c0.4,0,0.601,0.3,0.601,0.7C16.1,6.1,15,10.4,11.6,14.5c-0.2,0.3-0.7,0.3-0.9,0C7.9,10.9,7,7.2,6.8,5.8C6.7,5.5,6.5,5.3,6.2,5.3
			H5.7H5.3C5,5.3,4.7,5.6,4.8,6c0.3,1.6,1.3,5.9,4.7,10c0.2,0.2,0.2,0.6,0,0.8c-4,3.7-7.7,4.5-9,4.7c-0.3,0-0.5,0.3-0.5,0.6V23
			c0,0.3,0.3,0.6,0.6,0.6c1.5-0.199,5.7-1.1,10.2-5.3c0.2-0.2,0.6-0.2,0.8,0c2.2,2,5,4,8.8,5.2c0.3,0.1,0.6-0.1,0.699-0.4l0.301-0.8
			c0.1-0.3-0.101-0.6-0.4-0.7c-3.5-1.1-6-2.899-8-4.699c-0.2-0.2-0.2-0.601,0-0.801C18.5,9.4,18.6,2.3,18.6,2z"/>
		<path fill="#00A0FF" d="M28.6,0.1H27.7c-0.3,0-0.601,0.3-0.601,0.6v3.1c0,0.3-0.3,0.6-0.6,0.6h-2.1C24.1,4.4,23.8,4.7,23.8,5v0.9
			c0,0.3,0.3,0.6,0.601,0.6h2.1c0.3,0,0.6,0.3,0.6,0.6v4.5c0,0.301-0.3,0.601-0.6,0.601h-2.1c-0.301,0-0.601,0.3-0.601,0.6v0.9
			c0,0.3,0.3,0.6,0.601,0.6h2.1c0.3,0,0.6,0.3,0.6,0.601v4.3c0,0.899-0.399,2.399-2.699,2.6c-0.301,0-0.5,0.3-0.5,0.601V23
			c0,0.3,0.3,0.6,0.6,0.6c2.3-0.199,4.7-1.5,4.7-4.699V14.6c0-0.3,0.3-0.6,0.6-0.6h1.9c0.3,0,0.6-0.3,0.6-0.6v-0.9
			c0-0.3-0.3-0.6-0.6-0.6h-1.9c-0.3,0-0.6-0.301-0.6-0.601V6.8c0-0.3,0.3-0.6,0.6-0.6h1.9c0.3,0,0.6-0.3,0.6-0.6V4.7
			c0-0.3-0.3-0.6-0.6-0.6h-1.9c-0.3,0-0.6-0.3-0.6-0.6V0.6C29.2,0.3,29,0.1,28.6,0.1z"/>
		<path fill="#00A0FF" d="M33.2,22.8c0,0.3,0.3,0.601,0.6,0.601h6.5c2.9,0,5.2-2.2,5.2-5V4.7c0-0.3-0.3-0.6-0.6-0.6H33.8
			c-0.3,0-0.6,0.3-0.6,0.6V22.8z M40.4,21.4h-4.5C35.6,21.4,35.3,21.1,35.3,20.8v-6.2c0-0.3,0.3-0.6,0.601-0.6H43
			c0.3,0,0.6,0.3,0.6,0.6V18.4C43.6,20.1,42.1,21.4,40.4,21.4z M43.6,6.7v4.7c0,0.3-0.3,0.6-0.6,0.6h-7.1
			C35.6,12,35.3,11.7,35.3,11.4V6.7c0-0.3,0.3-0.6,0.601-0.6H43C43.3,6.2,43.6,6.4,43.6,6.7z"/>
		<path fill="#00A0FF" d="M42.1,0h-5.8c-0.3,0-0.6,0.3-0.6,0.6v0.9c0,0.3,0.3,0.6,0.6,0.6h5.8C42.4,2.1,42.7,1.8,42.7,1.5V0.6
			C42.7,0.3,42.5,0,42.1,0z"/>
		<path fill="#00A0FF" d="M64.2,0.9h-12c-0.3,0-0.601,0.3-0.601,0.6v0.9C51.6,2.7,51.9,3,52.2,3h12c0.3,0,0.6-0.3,0.6-0.6V1.5
			C64.8,1.2,64.5,0.9,64.2,0.9z"/>
		<path fill="#00A0FF" d="M59.1,11.2h8.4c0.3,0,0.6-0.3,0.6-0.6V9.7c0-0.3-0.3-0.6-0.6-0.6H48.9C48.6,9.1,48.3,9.4,48.3,9.7v0.9
			c0,0.3,0.3,0.6,0.601,0.6H54.6c0.5,0,0.7,0.5,0.5,0.899L51.3,19c-0.1,0.2-0.2,0.3-0.2,0.5c-0.3,0.9-0.199,1.9,0.4,2.7
			s1.6,1.399,2.7,1.399H64.6c0.5,0,0.9-0.199,1.101-0.6s0.3-0.9,0.1-1.3L63.4,17c-0.101-0.3-0.5-0.4-0.801-0.2l-0.8,0.4
			c-0.3,0.1-0.399,0.5-0.2,0.8l1.4,2.8c0.2,0.4-0.1,0.8-0.5,0.8h-8.3c-0.4,0-0.8-0.199-1-0.5C53.1,21,52.9,20.7,53,20.3
			c0-0.1,0-0.1,0.1-0.2L57.7,12C58,11.5,58.5,11.2,59.1,11.2z"/>
	</g>
</g>
</svg>

